<svg width="26" height="26" viewBox="0 0 26 26" fill="none" xmlns="http://www.w3.org/2000/svg">
<path d="M21.6663 7.58317V18.4165C21.6663 22.7498 20.583 23.8332 16.2497 23.8332H9.74967C5.41634 23.8332 4.33301 22.7498 4.33301 18.4165V7.58317C4.33301 3.24984 5.41634 2.1665 9.74967 2.1665H16.2497C20.583 2.1665 21.6663 3.24984 21.6663 7.58317Z" stroke="#FA4907" stroke-width="1.625" stroke-linecap="round" stroke-linejoin="round"/>
<path d="M15.1663 5.95801H10.833" stroke="#FA4907" stroke-width="1.625" stroke-linecap="round" stroke-linejoin="round"/>
<path d="M12.9995 20.6913C13.9269 20.6913 14.6786 19.9396 14.6786 19.0122C14.6786 18.0848 13.9269 17.333 12.9995 17.333C12.0721 17.333 11.3203 18.0848 11.3203 19.0122C11.3203 19.9396 12.0721 20.6913 12.9995 20.6913Z" stroke="#FA4907" stroke-width="1.625" stroke-linecap="round" stroke-linejoin="round"/>
</svg>
