<svg width="20" height="24" viewBox="0 0 20 24" fill="none" xmlns="http://www.w3.org/2000/svg">
<path d="M18.6663 6.58317V17.4165C18.6663 21.7498 17.583 22.8332 13.2497 22.8332H6.74967C2.41634 22.8332 1.33301 21.7498 1.33301 17.4165V6.58317C1.33301 2.24984 2.41634 1.1665 6.74967 1.1665H13.2497C17.583 1.1665 18.6663 2.24984 18.6663 6.58317Z" stroke="#FA4907" stroke-width="1.625" stroke-linecap="round" stroke-linejoin="round"/>
<path d="M12.1663 4.95801H7.83301" stroke="#FA4907" stroke-width="1.625" stroke-linecap="round" stroke-linejoin="round"/>
<path d="M9.99948 19.6913C10.9269 19.6913 11.6786 18.9396 11.6786 18.0122C11.6786 17.0848 10.9269 16.333 9.99948 16.333C9.0721 16.333 8.32031 17.0848 8.32031 18.0122C8.32031 18.9396 9.0721 19.6913 9.99948 19.6913Z" stroke="#FA4907" stroke-width="1.625" stroke-linecap="round" stroke-linejoin="round"/>
</svg>
