<svg width="20" height="20" viewBox="0 0 20 20" fill="none" xmlns="http://www.w3.org/2000/svg">
<path fill-rule="evenodd" clip-rule="evenodd" d="M13.572 1.6665H16.2942C17.4204 1.6665 18.3341 2.58809 18.3341 3.72499V6.46992C18.3341 7.60597 17.4204 8.52841 16.2942 8.52841H13.572C12.4449 8.52841 11.5312 7.60597 11.5312 6.46992V3.72499C11.5312 2.58809 12.4449 1.6665 13.572 1.6665Z" stroke="#ABA5A2" stroke-width="1.3" stroke-linecap="round" stroke-linejoin="round"/>
<path fill-rule="evenodd" clip-rule="evenodd" d="M3.70776 1.6665H6.42907C7.55619 1.6665 8.46984 2.58809 8.46984 3.72499V6.46992C8.46984 7.60597 7.55619 8.52841 6.42907 8.52841H3.70776C2.58064 8.52841 1.66699 7.60597 1.66699 6.46992V3.72499C1.66699 2.58809 2.58064 1.6665 3.70776 1.6665Z" stroke="#ABA5A2" stroke-width="1.3" stroke-linecap="round" stroke-linejoin="round"/>
<path fill-rule="evenodd" clip-rule="evenodd" d="M3.70776 11.4712H6.42907C7.55619 11.4712 8.46984 12.3928 8.46984 13.5305V16.2746C8.46984 17.4115 7.55619 18.3331 6.42907 18.3331H3.70776C2.58064 18.3331 1.66699 17.4115 1.66699 16.2746V13.5305C1.66699 12.3928 2.58064 11.4712 3.70776 11.4712Z" stroke="#ABA5A2" stroke-width="1.3" stroke-linecap="round" stroke-linejoin="round"/>
<path fill-rule="evenodd" clip-rule="evenodd" d="M13.572 11.4712H16.2942C17.4204 11.4712 18.3341 12.3928 18.3341 13.5305V16.2746C18.3341 17.4115 17.4204 18.3331 16.2942 18.3331H13.572C12.4449 18.3331 11.5312 17.4115 11.5312 16.2746V13.5305C11.5312 12.3928 12.4449 11.4712 13.572 11.4712Z" stroke="#ABA5A2" stroke-width="1.3" stroke-linecap="round" stroke-linejoin="round"/>
</svg>
