<svg width="20" height="20" viewBox="0 0 20 20" fill="none" xmlns="http://www.w3.org/2000/svg">
<path d="M15.8914 11.8668C15.6497 12.1085 15.2664 12.1085 15.0331 11.8668C14.7914 11.6252 14.7914 11.2418 15.0331 11.0085C16.6997 9.34183 16.6997 6.6335 15.0331 4.97516C13.3664 3.31683 10.6581 3.3085 8.99974 4.97516C7.34141 6.64183 7.33307 9.35016 8.99974 11.0085C9.24141 11.2502 9.24141 11.6335 8.99974 11.8668C8.75807 12.1085 8.37474 12.1085 8.14141 11.8668C5.99974 9.72516 5.99974 6.24183 8.14141 4.1085C10.2831 1.97516 13.7664 1.96683 15.8997 4.1085C18.0331 6.25016 18.0331 9.72516 15.8914 11.8668Z" fill="#ABA5A2"/>
<path d="M4.10827 8.1334C4.34994 7.89173 4.73327 7.89173 4.9666 8.1334C5.20827 8.37507 5.20827 8.7584 4.9666 8.99173C3.29994 10.6584 3.29994 13.3667 4.9666 15.0251C6.63327 16.6834 9.3416 16.6917 10.9999 15.0251C12.6583 13.3584 12.6666 10.6501 10.9999 8.99173C10.7583 8.75006 10.7583 8.36673 10.9999 8.1334C11.2416 7.89173 11.6249 7.89173 11.8583 8.1334C13.9999 10.2751 13.9999 13.7584 11.8583 15.8917C9.7166 18.0251 6.23327 18.0334 4.09994 15.8917C1.9666 13.7501 1.9666 10.2751 4.10827 8.1334Z" fill="#ABA5A2"/>
</svg>
